<svg viewBox="0 0 100 100" xml:space="preserve" xmlns="http://www.w3.org/2000/svg"><path d="M50.006 36.948c4.95 0 8.976-4.751 8.976-10.592 0-5.811-3.987-10.54-8.902-10.588l-.012-.001c-.021 0-.041-.004-.062-.004-4.95 0-8.976 4.751-8.976 10.592s4.026 10.593 8.976 10.593zm.378-19.197c3.697.244 6.647 4.004 6.647 8.605 0 3.739-1.95 6.921-4.664 8.116.459-.849.842-1.901.885-3.11.071-2.004-.788-3.922-2.556-5.701-1.364-1.373-2.032-2.795-1.987-4.227.056-1.756 1.162-3.134 1.675-3.683zm-2.739.489c-.459.849-.842 1.901-.885 3.11-.071 2.004.788 3.922 2.556 5.701 1.364 1.373 2.032 2.795 1.987 4.226-.056 1.757-1.163 3.136-1.674 3.684-3.697-.243-6.647-4.004-6.647-8.605-.001-3.739 1.949-6.921 4.663-8.116zM46.991 80.433h34.667a.98.98 0 0 0 .976-.982v-5.367a.979.979 0 0 0-.976-.982h-1.111V57.306a.979.979 0 0 0-.976-.982H48.498a.98.98 0 0 0-.976.982v15.796h-.532a.98.98 0 0 0-.976.982v5.367a.98.98 0 0 0 .977.982zm18.31-22.145h13.295v6.425H65.301v-6.425zm0 8.389h13.295v6.425H65.301v-6.425zm-15.827-8.389H63.35v6.425H49.474v-6.425zm0 8.389H63.35v6.425H49.474v-6.425zm-1.507 8.389h32.716v3.404H47.967v-3.404z" fill="#ffffff" class="fill-000000"></path><path d="M94.003 53.497a.998.998 0 0 0 .997-1v-3.62c0-.023-.011-.042-.013-.064a.998.998 0 0 0-.096-.371 1.032 1.032 0 0 0-.14-.209c-.022-.026-.039-.054-.063-.077-.007-.007-.011-.016-.018-.023l-4.728-4.26a.99.99 0 0 0-.544-.234v-7.563h.659c2.66 0 4.824-2.177 4.824-4.854v-4.867c0-.022-.011-.04-.012-.061a.966.966 0 0 0-.05-.249c-.013-.038-.023-.074-.04-.109l-.01-.029L84.292 5.535a.973.973 0 0 0-.866-.531h-66.84a.974.974 0 0 0-.866.53L5.229 25.907c-.009.017-.012.037-.02.055l-.013.036a.977.977 0 0 0-.072.422v4.804c0 2.677 2.164 4.854 4.824 4.854h.664v7.563a.98.98 0 0 0-.544.233l-4.737 4.26c-.008.007-.012.017-.02.025-.022.021-.038.047-.058.07a.996.996 0 0 0-.145.216.982.982 0 0 0-.095.37c-.002.021-.013.039-.013.062v3.62c0 .552.446 1 .997 1h4.615v32.812H6.1a.98.98 0 0 0-.976.982v6.723c0 .542.436.982.976.982h87.804a.98.98 0 0 0 .976-.982v-6.723a.979.979 0 0 0-.976-.982h-4.508V53.497h4.607zm-81.439-9.88v-7.54h.663c1.578 0 2.968-.777 3.848-1.958.881 1.182 2.271 1.958 3.848 1.958h3.279c1.825 0 3.397-1.037 4.216-2.544 1.182 1.544 3.031 2.544 5.112 2.544.497 0 .988-.063 1.469-.175.906 3.401 3.975 5.845 7.574 5.845h14.86c3.609 0 6.686-2.459 7.578-5.843.477.11.965.173 1.452.173 2.084 0 3.935-1.003 5.117-2.55.818 1.511 2.392 2.55 4.22 2.55h3.28c1.578 0 2.968-.777 3.848-1.958.881 1.182 2.271 1.958 3.848 1.958h.668v7.54h-74.88zm14.512-14.019v1.625a2.885 2.885 0 0 1-2.873 2.89h-3.279a2.885 2.885 0 0 1-2.873-2.89V27.34h9.024v2.238l.001.02zm7.638 4.358a4.542 4.542 0 0 1-1.182.157c-2.482 0-4.5-2.029-4.505-4.526V27.34h5.686v6.481l.001.135zm30.583.002.001-.137V27.34h5.673v2.238c0 2.501-2.021 4.535-4.506 4.535-.392 0-.788-.053-1.168-.155zm7.632-2.735V27.34h9.025v3.883a2.885 2.885 0 0 1-2.873 2.89h-3.28c-1.583 0-2.872-1.297-2.872-2.89zm20 0a2.885 2.885 0 0 1-2.873 2.89h-3.279a2.885 2.885 0 0 1-2.873-2.89V27.34h9.024v3.883zM82.832 6.968l9.465 18.406h-8.563L80.182 6.968h2.65zm-4.638 0 3.552 18.406h-8.935L70.443 6.968h7.751zm-9.719 0 2.368 18.408h-5.545v-6.495a7.89 7.89 0 0 0-4.281-7.016l-.315-4.897h7.773zm-17.494 0h7.765l.268 4.167a7.813 7.813 0 0 0-1.579-.166h-6.454V6.968zm-9.73 0h7.779v4.001h-6.454c-.538 0-1.07.058-1.592.169l.267-4.17zm1.325 5.965h14.86a5.95 5.95 0 0 1 2.266.456 5.948 5.948 0 0 1 3.645 5.493V33.822c0 .218-.011.426-.041.633l-.007.069c-.338 3-2.858 5.262-5.862 5.262h-14.86c-3.004 0-5.524-2.262-5.868-5.305a4.305 4.305 0 0 1-.043-.658V18.883a5.932 5.932 0 0 1 3.634-5.48 5.755 5.755 0 0 1 2.276-.47zm-3.281-5.965-.315 4.911a7.876 7.876 0 0 0-4.267 7.003v6.495h-5.552l2.367-18.408h7.767zm-9.735 0-2.367 18.406h-8.935L21.81 6.968h7.75zm-12.381 0h2.643l-3.551 18.406h-8.57l9.478-18.406zm-7.23 27.145a2.885 2.885 0 0 1-2.873-2.89V27.34H16.1v3.883a2.885 2.885 0 0 1-2.873 2.89H9.949zm1.167 11.504h.088a.963.963 0 0 0 .768 0h76.066a.963.963 0 0 0 .768 0h.087l2.508 2.26H8.604l2.512-2.26zm-4.121 4.26h86.011v1.62h-4.45c-.046-.007-.087-.027-.134-.027-.048 0-.089.021-.134.027H11.723c-.046-.007-.087-.027-.134-.027-.048 0-.089.021-.134.027h-4.46v-1.62zm85.934 38.395v4.76H7.076v-4.76H92.929zm-72.912-1.967V58.288h8.042v28.017h-8.042zm9.993 0V58.288h8.042v28.017H30.01zm57.436 0H40.002V57.306a.979.979 0 0 0-.976-.982H19.041a.98.98 0 0 0-.976.982v28.999h-5.501V53.497h74.882v32.808z" fill="#ffffff" class="fill-000000"></path></svg>