<svg viewBox="0 0 64 64" xmlns="http://www.w3.org/2000/svg"><g data-name="Layer 22"><path d="M2 56h60v6H2zM4 56v-4h56v4M2 18h60v4H2zM4 18 32 2l28 16" fill="none" stroke="#ffffff" stroke-linejoin="round" stroke-width="2px" class="stroke-000000"></path><circle cx="32" cy="11" r="3" fill="none" stroke="#ffffff" stroke-linejoin="round" stroke-width="2px" class="stroke-000000"></circle><path d="M6 52v-4h10v4M6 22v4h10v-4M8 26v22M14 26v22M48 52v-4h10v4M48 22v4h10v-4M50 26v22M56 26v22M27.707 32.707A4.414 4.414 0 0 1 29 35.828v.758A3.415 3.415 0 0 1 28 39a3.415 3.415 0 0 1-2.414 1h-1.172A3.415 3.415 0 0 1 22 39a3.415 3.415 0 0 1-1-2.414v-.758a4.414 4.414 0 0 1 1.293-3.121A2.414 2.414 0 0 0 23 31a2.414 2.414 0 0 0-.707-1.707L21 28h8l-1.293 1.293A2.414 2.414 0 0 0 27 31a2.414 2.414 0 0 0 .707 1.707ZM41.707 32.707A4.414 4.414 0 0 1 43 35.828v.758A3.415 3.415 0 0 1 42 39a3.415 3.415 0 0 1-2.414 1h-1.172A3.415 3.415 0 0 1 36 39a3.415 3.415 0 0 1-1-2.414v-.758a4.414 4.414 0 0 1 1.293-3.121A2.414 2.414 0 0 0 37 31a2.414 2.414 0 0 0-.707-1.707L35 28h8l-1.293 1.293A2.414 2.414 0 0 0 41 31a2.414 2.414 0 0 0 .707 1.707ZM20 40h10v4H20zM22 44v8M28 44v8M34 40h10v4H34zM36 44v8M42 44v8M29 36h-8M43 36h-8" fill="none" stroke="#ffffff" stroke-linejoin="round" stroke-width="2px" class="stroke-000000"></path></g></svg>