<svg viewBox="0 0 64 64" xmlns="http://www.w3.org/2000/svg"><path d="M62 57a1 1 0 0 0 1-1v-4a1 1 0 0 0-1-1h-3v-2h1a1 1 0 0 0 1-1v-8a1 1 0 0 0-1-1h-9v-8h3a1 1 0 0 0 .71-.29l1-1a3 3 0 1 0-1.41-1.41l-.71.71H51V25h1a1 1 0 0 0 1-.68l2-6a1 1 0 0 0-.14-.9l-4-5a1 1 0 0 0-1.56 0l-4 5a1 1 0 0 0-.14.9l2 6A1 1 0 0 0 48 25h1v4h-2.59l-.71-.71a3 3 0 1 0-1.41 1.41l1 1a1 1 0 0 0 .71.3h3v8H38.12A17.61 17.61 0 0 0 40 31c0-8.82-6.28-16-14-16a13 13 0 0 0-9.4 4.17L13 1.8a1 1 0 0 0-2 0l-10 48a1 1 0 0 0 .2.83A1 1 0 0 0 2 51h9v10H1v2h62v-2h-2v-4Zm-5-31a1 1 0 1 1-1 1 1 1 0 0 1 1-1Zm-7-11.4 1.92 2.4h-3.84ZM47.39 19h5.22l-1.33 4h-2.56ZM42 27a1 1 0 1 1 1 1 1 1 0 0 1-1-1Zm19 28H31v-2h30Zm-34-8a12.71 12.71 0 0 0 4-1v2a1 1 0 0 0 1 1h1v2h-3a1 1 0 0 0-1 1v4a1 1 0 0 0 1 1h1v4h-4Zm24 4v-2h2v2Zm-2 0H39v-2h10Zm-12 0h-2v-2h2Zm-4 6h2v4h-2Zm4 0h12v4H37Zm14 0h4v4h-4Zm6-6h-2v-2h2Zm2-4H33v-6h26ZM26 17c6.62 0 12 6.28 12 14a15.4 15.4 0 0 1-2.17 8H32a1 1 0 0 0-1 1v3.71a10.73 10.73 0 0 1-4 1.22v-9.52l3.71-3.7-1.42-1.42-2.29 2.3V29h-2v8.59l-1.29-1.3-1.42 1.42 2.71 2.7v4.53a10.53 10.53 0 0 1-3.21-.85l-4.68-22.46A11.28 11.28 0 0 1 26 17ZM3.23 49 12 6.9 20.77 49H13V37.41l2.71-2.7-1.42-1.42-1.29 1.3V30h-2v10.59l-2.29-2.3-1.42 1.42 3.71 3.7V49ZM13 51h9a1 1 0 0 0 .78-.37 1 1 0 0 0 .2-.83l-.71-3.39a12.1 12.1 0 0 0 2.73.53V61H13Zm46 10h-2v-4h2Z" data-name="Layer 5" fill="#ffffff" class="fill-000000"></path></svg>