<svg viewBox="0 0 64 64" xmlns="http://www.w3.org/2000/svg"><g data-name="18-Shopping Bag"><path d="M15 63H5a4 4 0 0 1-4-4V13h46v16" fill="none" stroke="#ffffff" stroke-linejoin="round" stroke-width="2px" class="stroke-000000"></path><path d="M36 17V5a4 4 0 0 0-4-4H16a4 4 0 0 0-4 4v18M1 19h25" fill="none" stroke="#ffffff" stroke-linejoin="round" stroke-width="2px" class="stroke-000000"></path><circle cx="12" cy="25" r="2" fill="none" stroke="#ffffff" stroke-linejoin="round" stroke-width="2px" class="stroke-000000"></circle><path d="M63 59a4 4 0 0 1-4 4H21a4 4 0 0 1-4-4V29h46Z" fill="none" stroke="#ffffff" stroke-linejoin="round" stroke-width="2px" class="stroke-000000"></path><path d="M52 39V24a4 4 0 0 0-4-4H32a4 4 0 0 0-4 4v15M17 35h46" fill="none" stroke="#ffffff" stroke-linejoin="round" stroke-width="2px" class="stroke-000000"></path><circle cx="28" cy="41" r="2" fill="none" stroke="#ffffff" stroke-linejoin="round" stroke-width="2px" class="stroke-000000"></circle><circle cx="52" cy="41" r="2" fill="none" stroke="#ffffff" stroke-linejoin="round" stroke-width="2px" class="stroke-000000"></circle><path d="M5 54v4a.979.979 0 0 0 1 1h3M39 41h2M43 41h2M35 41h2" fill="none" stroke="#ffffff" stroke-linejoin="round" stroke-width="2px" class="stroke-000000"></path></g></svg>