<svg data-name="Layer 1" viewBox="0 0 32 32" xmlns="http://www.w3.org/2000/svg"><path d="M30.5 8h-3.69l-2-4h-7.62l-2 4H8V6H3v2H1.5A1.5 1.5 0 0 0 0 9.5v17A1.5 1.5 0 0 0 1.5 28h29a1.5 1.5 0 0 0 1.5-1.5v-17A1.5 1.5 0 0 0 30.5 8ZM4 7h3v1H4V7Zm27 19.5a.5.5 0 0 1-.5.5h-29a.5.5 0 0 1-.5-.5v-17a.5.5 0 0 1 .5-.5h14.31l2-4h6.38l2 4h4.31a.5.5 0 0 1 .5.5v17Z" fill="#ffffff" class="fill-000000"></path><path d="M7 10h1v16H7zM21 10a8 8 0 1 0 8 8 8 8 0 0 0-8-8Zm0 15a7 7 0 1 1 7-7 7 7 0 0 1-7 7Z" fill="#ffffff" class="fill-000000"></path><path d="M21 13a5 5 0 1 0 5 5 5 5 0 0 0-5-5Zm0 9a4 4 0 1 1 4-4 4 4 0 0 1-4 4Z" fill="#ffffff" class="fill-000000"></path><circle cx="13" cy="11" r="1" fill="#ffffff" class="fill-000000"></circle></svg>